<?xml version="1.0" encoding="UTF-8" standalone="no"?>
<!-- Created with Inkscape (http://www.inkscape.org/) -->

<svg
   width="114"
   height="17"
   viewBox="0 0 30.1625 4.4979166"
   version="1.1"
   id="svg1"
   inkscape:export-filename="star-4.svg"
   inkscape:export-xdpi="96"
   inkscape:export-ydpi="96"
   xmlns:inkscape="http://www.inkscape.org/namespaces/inkscape"
   xmlns:sodipodi="http://sodipodi.sourceforge.net/DTD/sodipodi-0.dtd"
   xmlns="http://www.w3.org/2000/svg"
   xmlns:svg="http://www.w3.org/2000/svg">
  <sodipodi:namedview
     id="namedview1"
     pagecolor="#ffffff"
     bordercolor="#000000"
     borderopacity="0.25"
     inkscape:showpageshadow="2"
     inkscape:pageopacity="0.0"
     inkscape:pagecheckerboard="0"
     inkscape:deskcolor="#d1d1d1"
     inkscape:document-units="mm">
    <inkscape:page
       x="0"
       y="0"
       width="30.1625"
       height="4.4979167"
       id="page2"
       margin="0"
       bleed="0" />
  </sodipodi:namedview>
  <defs
     id="defs1" />
  <g
     inkscape:label="Слой 1"
     inkscape:groupmode="layer"
     id="layer1">
    <path
       fill="#83b3d3"
       d="m 2.3867705,0 0.555625,1.7197916 H 4.7680204 L 3.2863538,2.7781249 3.8684371,4.4979166 2.3867705,3.4395833 0.90510377,4.4979166 1.4871871,2.7781249 0.00552049,1.7197916 H 1.8311455 Z"
       id="path1"
       sodipodi:nodetypes="ccccccccccc"
       style="stroke-width:0.264583" />
    <path
       fill="#83b3d3"
       d="m 8.7366774,0 0.555625,1.7197917 H 11.117928 L 9.6362607,2.7781251 10.218344,4.4979166 8.7366774,3.4395834 7.2550107,4.4979166 7.837094,2.7781251 6.3554274,1.7197917 h 1.825625 z"
       id="path1-4"
       sodipodi:nodetypes="ccccccccccc"
       style="stroke-width:0.264583" />
    <path
       fill="#83b3d3"
       d="m 15.086585,0 0.555625,1.7197917 h 1.825625 L 15.986168,2.7781251 16.568251,4.4979166 15.086585,3.4395834 13.604918,4.4979166 14.187002,2.7781251 12.705335,1.7197917 h 1.825625 z"
       id="path1-4-7"
       sodipodi:nodetypes="ccccccccccc"
       style="stroke-width:0.264583" />
    <path
       fill="#83b3d3"
       d="m 21.436492,0 0.555625,1.7197917 h 1.825625 L 22.336075,2.7781251 22.918158,4.4979166 21.436492,3.4395834 19.954825,4.4979166 20.536909,2.7781251 19.055242,1.7197917 h 1.825625 z"
       id="path1-4-7-2"
       sodipodi:nodetypes="ccccccccccc"
       style="stroke-width:0.264583" />
    <path
       fill="#83b3d3"
       d="m 27.786399,0 0.555625,1.7197917 h 1.825625 L 28.685982,2.7781251 29.268065,4.4979166 27.786399,3.4395834 26.304732,4.4979166 26.886816,2.7781251 25.405149,1.7197917 h 1.825625 z"
       id="path1-4-7-2-4"
       sodipodi:nodetypes="ccccccccccc"
       style="stroke-width:0.264583" />
  </g>
</svg>
